<?xml version="1.0" standalone="no"?>
<!DOCTYPE svg PUBLIC "-//W3C//DTD SVG 20010904//EN"
 "http://www.w3.org/TR/2001/REC-SVG-20010904/DTD/svg10.dtd">
<svg version="1.0" xmlns="http://www.w3.org/2000/svg"
 width="1872.000000pt" height="1872.000000pt" viewBox="0 0 1872.000000 1872.000000"
 preserveAspectRatio="xMidYMid meet">
<metadata>
Created by potrace 1.11, written by Peter Selinger 2001-2013
</metadata>
<g transform="translate(0.000000,1872.000000) scale(0.100000,-0.100000)"
fill="#000000" stroke="none">
<path d="M12055 17804 c-327 -32 -584 -90 -930 -208 -594 -202 -1107 -489
-1449 -808 l-70 -65 -88 88 c-312 309 -883 594 -1522 759 -403 104 -881 152
-1191 121 -373 -38 -882 -191 -1480 -446 -731 -312 -1407 -705 -1794 -1044
-88 -77 -207 -216 -236 -276 -38 -76 -58 -197 -45 -262 68 -323 867 -706 1979
-948 648 -140 1208 -186 1650 -134 596 70 1418 317 1966 591 308 154 607 355
739 496 l29 31 63 -57 64 -57 44 -135 c92 -281 128 -504 129 -790 0 -250 -23
-428 -100 -777 -5 -23 -8 -23 -167 -23 -412 0 -1044 -47 -1576 -116 -1598
-208 -2894 -645 -3885 -1310 -93 -63 -189 -128 -212 -146 l-42 -31 -82 59
c-128 93 -323 251 -454 371 -468 426 -658 552 -816 541 -86 -6 -133 -42 -181
-138 -66 -133 -89 -304 -108 -800 -34 -875 -127 -1187 -453 -1527 -144 -151
-422 -371 -772 -613 -435 -300 -630 -481 -671 -618 -32 -107 4 -181 113 -240
110 -58 325 -100 813 -157 118 -14 273 -35 344 -45 71 -11 130 -20 131 -20 1
0 -13 -60 -33 -132 -19 -73 -49 -198 -67 -278 l-32 -144 -124 -51 c-699 -288
-1160 -782 -1307 -1400 -25 -102 -27 -127 -27 -335 0 -208 2 -233 27 -335 160
-673 706 -1209 1495 -1469 77 -26 82 -29 97 -66 36 -90 150 -315 214 -421 162
-268 314 -462 542 -690 262 -262 563 -488 911 -682 l156 -87 7 -65 c11 -108
53 -251 105 -361 155 -324 420 -568 876 -805 118 -62 636 -300 910 -419 378
-164 892 -308 1320 -371 211 -30 584 -38 745 -15 414 60 692 236 821 521 58
129 74 206 73 365 0 123 -4 161 -27 253 -15 59 -32 117 -38 128 -10 19 -8 20
38 14 224 -26 910 -34 1285 -15 1482 76 2941 378 4173 865 803 317 1510 716
2069 1168 97 79 99 80 130 68 122 -50 377 -137 492 -167 722 -190 1281 -82
1662 320 140 149 243 322 299 503 24 78 27 105 27 238 1 170 -16 254 -84 422
-120 293 -416 643 -744 877 -44 31 -86 61 -95 65 -13 8 -9 30 32 173 140 490
197 915 197 1468 0 403 -16 571 -85 880 -275 1235 -1135 2399 -2396 3243 -825
551 -1753 951 -2811 1211 -711 175 -1452 276 -2288 312 l-155 6 27 136 c52
260 63 375 63 667 0 278 -9 367 -54 573 -10 45 -17 82 -15 82 1 0 51 -20 111
-44 501 -201 1161 -335 1738 -353 416 -12 861 50 1497 211 647 164 1242 394
1574 611 121 79 255 214 277 279 22 65 22 192 0 248 -46 118 -210 299 -403
444 -632 475 -1766 954 -2529 1069 -105 16 -341 27 -416 19z"/>
</g>
</svg>
